HIERARCHY
ROOT Hips
{
	OFFSET -3.958830 18.904000 13.208200
	CHANNELS 6 Xposition Yposition Zposition Zrotation Yrotation Xrotation 
	JOINT LHipJoint
	{
		OFFSET 0.000000 0.000000 0.000000
		CHANNELS 3 Zrotation Yrotation Xrotation
		JOINT LeftUpLeg
		{
			OFFSET 1.800000 -1.400000 0.085000
			CHANNELS 3 Zrotation Yrotation Xrotation
			JOINT LeftLeg
			{
				OFFSET 2.215000 -6.000000 0.000000
				CHANNELS 3 Zrotation Yrotation Xrotation
				JOINT LeftFoot
				{
					OFFSET 2.500000 -6.900000 0.000000
					CHANNELS 3 Zrotation Yrotation Xrotation
					JOINT LeftToeBase
					{
						OFFSET 0.200000 -0.500000 1.950000
						CHANNELS 3 Zrotation Yrotation Xrotation
						End Site
						{
							OFFSET 0.000000 0.000000 0.000000
						}
					}
				}
			}
		}
	}
	JOINT RHipJoint
	{
		OFFSET 0.000000 0.000000 0.000000
		CHANNELS 3 Zrotation Yrotation Xrotation
		JOINT RightUpLeg
		{
			OFFSET -1.800000 -1.400000 0.085000
			CHANNELS 3 Zrotation Yrotation Xrotation
			JOINT RightLeg
			{
				OFFSET -2.215000 -6.000000 0.000000
				CHANNELS 3 Zrotation Yrotation Xrotation
				JOINT RightFoot
				{
					OFFSET -2.500000 -6.900000 0.000000
					CHANNELS 3 Zrotation Yrotation Xrotation
					JOINT RightToeBase
					{
						OFFSET -0.200000 -0.500000 1.950000
						CHANNELS 3 Zrotation Yrotation Xrotation
						End Site
						{
							OFFSET 0.000000 0.000000 0.000000
						}
					}
				}
			}
		}
	}
	JOINT LowerBack
	{
		OFFSET 0.000000 0.000000 0.000000
		CHANNELS 3 Zrotation Yrotation Xrotation
		JOINT Spine
		{
			OFFSET -0.087000 1.940000 -0.288900
			CHANNELS 3 Zrotation Yrotation Xrotation
			JOINT Spine1
			{
				OFFSET 0.000000 1.950000 0.060000
				CHANNELS 3 Zrotation Yrotation Xrotation
				JOINT Neck
				{
					OFFSET 0.000000 0.000000 0.000000
					CHANNELS 3 Zrotation Yrotation Xrotation
					JOINT Neck1
					{
						OFFSET 0.000000 1.600000 0.340000
						CHANNELS 3 Zrotation Yrotation Xrotation
						JOINT Head
						{
							OFFSET 0.000000 1.667000 -0.240000
							CHANNELS 3 Zrotation Yrotation Xrotation
							End Site
							{
								OFFSET 0.000000 0.000000 0.000000
							}
						}
					}
				}
				JOINT LeftShoulder
				{
					OFFSET 0.000000 0.000000 0.000000
					CHANNELS 3 Zrotation Yrotation Xrotation
					JOINT LeftArm
					{
						OFFSET 2.700000 1.550000 -0.730000
						CHANNELS 3 Zrotation Yrotation Xrotation
						JOINT LeftForeArm
						{
							OFFSET 5.450000 0.000000 0.000000
							CHANNELS 3 Zrotation Yrotation Xrotation
							JOINT LeftHand
							{
								OFFSET 3.450000 0.000000 0.000000
								CHANNELS 3 Zrotation Yrotation Xrotation
								JOINT LeftHandIndex1
								{
									OFFSET 0.750000 0.000000 0.000000
									CHANNELS 3 Zrotation Yrotation Xrotation
									End Site
									{
										OFFSET 0.000000 0.000000 0.000000
									}
								}
							}
						}
					}
				}
				JOINT RightShoulder
				{
					OFFSET 0.000000 0.000000 0.000000
					CHANNELS 3 Zrotation Yrotation Xrotation
					JOINT RightArm
					{
						OFFSET -2.700000 1.550000 -0.730000
						CHANNELS 3 Zrotation Yrotation Xrotation
						JOINT RightForeArm
						{
							OFFSET -5.450000 0.000000 0.000000
							CHANNELS 3 Zrotation Yrotation Xrotation
							JOINT RightHand
							{
								OFFSET -3.450000 0.000000 0.000000
								CHANNELS 3 Zrotation Yrotation Xrotation
								JOINT RightHandIndex1
								{
									OFFSET -0.750000 0.000000 0.000000
									CHANNELS 3 Zrotation Yrotation Xrotation
									End Site
									{
										OFFSET 0.000000 0.000000 0.000000
									}
								}
							}
						}
					}
				}
			}
		}
	}
}
MOTION
Frames: 7
Frame Time: 0.016667
1.496500 17.389620 -2.045010 -4.075814 -10.640863 9.014462 -14.836378 13.060176 4.161924 -10.359422 -2.969790 -15.915715 -5.621025 3.194373 3.345154 -0.286502 2.351065 3.844569 -0.021430 -0.176950 -0.028590 18.412589 -11.135121 3.269442 2.158683 -0.021104 -0.709317 8.097094 -6.818453 19.597531 -0.562907 -4.567414 2.914373 -0.191790 0.113450 0.109500 -4.042734 -1.198248 -8.864392 17.130453 6.378203 6.711670 -8.847555 9.133329 -13.463909 3.463479 0.122073 -16.340793 -4.223163 -1.888369 55.027901 -3.983060 -2.761230 1.838550 -19.208585 -11.871947 4.433966 9.853220 12.310153 0.864086 0.645259 -10.127376 0.254034 -3.743756 2.701997 0.405390 0.008260 0.085660 0.063810 11.548688 17.024941 11.300876 -3.737459 2.712236 -0.856302 -2.805096 -6.799684 0.349794 2.931832 -0.799747 -0.093830 0.126670 0.095420 -0.063690 
1.513780 17.418320 -2.065000 -4.211436 -10.695620 9.482364 -14.820623 13.043524 4.138902 -9.699754 -2.897328 -16.111987 -6.022457 3.125716 2.187102 -0.271175 2.333888 3.850352 -0.013810 -0.166490 -0.015820 18.435899 -11.117647 3.271611 2.190584 -0.282038 -0.779482 8.072519 -6.623577 18.112660 -0.551648 -4.428602 2.958939 -0.193180 0.098580 0.110990 -4.101171 -1.200494 -8.838812 17.547013 6.261412 6.433702 -9.124791 9.061928 -13.125769 3.492032 0.060183 -16.425774 -4.334139 -1.884454 54.376392 -4.033050 -2.596070 1.330650 -18.895633 -11.849875 4.678766 9.531288 12.469597 0.794327 2.250925 -9.235487 0.134342 -3.751939 2.676530 0.407250 -0.003300 0.099580 0.064010 11.142232 17.038504 11.309260 -3.380915 2.999719 -0.833247 -3.013934 -7.215900 0.402786 2.957842 -0.797962 -0.084450 0.120170 0.083540 -0.062420 
1.561930 17.488090 -2.095990 -4.004540 -10.791940 9.952092 -14.803650 13.038123 4.123018 -8.998850 -2.879143 -16.332265 -6.074984 2.975583 0.956340 -0.281432 2.297965 3.855894 0.012510 -0.143240 0.008950 18.456968 -11.096795 3.264190 1.673481 -0.604321 -0.749582 8.123955 -6.351436 15.707372 -0.545653 -4.238017 3.013344 -0.182790 0.065960 0.105800 -4.159010 -1.244830 -8.815720 17.876289 6.203925 6.138111 -9.422051 9.000091 -13.063139 3.491323 -0.177588 -16.449091 -5.098670 -1.555963 54.826434 -3.560820 -2.681280 0.332600 -18.630629 -11.685804 4.765690 9.303705 11.865894 0.677728 3.364635 -7.518800 -0.021912 -3.748655 2.631359 0.439610 -0.036890 0.125360 0.063800 10.928934 16.913114 11.295019 -3.539546 2.680074 -0.832621 -2.788809 -6.599475 0.387293 2.951228 -0.789432 -0.082510 0.117990 0.068060 -0.072070 
1.605390 17.557160 -2.143270 -3.493864 -11.105540 10.300809 -14.797505 13.045691 4.078651 -7.830015 -2.884096 -16.819788 -6.303285 2.967171 0.739688 -0.299770 2.304748 3.850866 0.015500 -0.146460 0.011960 18.453870 -11.120849 3.261418 0.977373 -0.771345 -1.025855 7.973515 -6.043413 13.596184 -0.516381 -4.078788 3.069209 -0.179880 0.059990 0.102730 -4.152684 -1.214873 -8.792347 17.356880 6.290500 6.260470 -9.402664 9.006670 -13.011865 3.423717 -0.434266 -16.284497 -5.769536 -1.355472 54.230078 -3.651810 -2.559170 -0.101590 -18.829010 -11.795145 4.678420 10.124581 11.407538 0.681151 3.421744 -6.680397 -0.086479 -3.750944 2.620457 0.452080 -0.042680 0.123760 0.061600 11.377826 17.028178 11.215552 -4.193809 2.715419 -0.967007 -3.112226 -7.523853 0.436186 2.964045 -0.792157 -0.090710 0.117430 0.070080 -0.080950 
1.646170 17.622610 -2.193830 -2.598576 -11.603957 10.344116 -14.826939 13.060681 4.025286 -6.886253 -2.918016 -17.110644 -6.024330 2.963721 1.200385 -0.319629 2.285194 3.848477 0.028340 -0.140980 0.037290 18.407936 -11.166782 3.258676 -0.221159 -0.782819 -1.276295 8.251020 -5.887379 11.855393 -0.506494 -3.981735 3.098781 -0.178320 0.038070 0.103470 -4.024001 -1.149481 -8.787005 15.660816 6.631817 6.589231 -8.523053 9.019658 -12.960104 3.381603 -0.476803 -16.073186 -6.081695 -1.422093 54.084615 -3.921450 -2.497960 -1.048720 -19.034387 -11.905034 4.603810 10.514244 11.014351 0.631791 3.593281 -6.640468 -0.098705 -3.735150 2.616879 0.473450 -0.059170 0.139180 0.053040 11.925286 16.978482 11.034146 -5.646603 2.226054 -1.089938 -2.603767 -7.209633 0.355822 2.949569 -0.781777 -0.090820 0.116810 0.064840 -0.093450 
1.697920 17.661600 -2.246070 -2.054467 -12.138686 10.219111 -14.824848 13.051714 3.892513 -5.777474 -2.848432 -17.219175 -5.456974 3.024831 2.332903 -0.318179 2.276073 3.852299 0.019600 -0.142770 0.030450 18.412505 -11.210109 3.255753 -1.219222 -0.808913 -1.429484 8.581216 -5.775718 10.347554 -0.490590 -3.966601 3.107451 -0.180010 0.041830 0.110120 -4.023611 -1.027739 -8.666156 14.937124 6.667889 6.648783 -8.128934 8.867045 -11.235124 3.403910 -0.572627 -15.728280 -6.142816 -1.762135 51.751197 -5.054020 -2.065740 -1.192920 -19.174453 -12.289739 4.731029 11.032644 10.994173 0.587370 4.739862 -6.888234 -0.071621 -3.736433 2.656616 0.449000 -0.044340 0.130580 0.054970 12.072116 17.158753 10.911709 -6.935990 2.282760 -1.191020 -2.508838 -7.757048 0.304768 2.962530 -0.804473 -0.085080 0.104090 0.061560 -0.087870 
1.750960 17.692060 -2.292820 -2.082985 -12.688812 10.148510 -14.797080 13.090047 3.722225 -3.784852 -2.624784 -17.325349 -5.448404 3.227240 3.655891 -0.275974 2.316948 3.833370 0.049870 -0.099540 0.040630 18.437191 -11.247951 3.265211 -1.616962 -0.824327 -1.675083 8.736537 -5.670912 9.532645 -0.492482 -3.953297 3.113632 -0.167700 0.032060 0.127600 -4.087853 -0.958706 -8.517671 15.147982 6.476578 6.734767 -8.108292 8.672586 -9.544136 3.420195 -0.841055 -15.372455 -6.372829 -1.876130 49.215071 -5.269690 -1.828280 -1.711400 -18.871593 -12.291145 4.794001 11.020317 11.148730 0.526275 5.618111 -7.616231 -0.011305 -3.708859 2.740010 0.414830 -0.041710 0.138380 0.077870 11.702303 17.153907 10.818665 -7.895649 2.237217 -1.197599 -2.270984 -7.795689 0.209694 2.978088 -0.852061 -0.050950 0.074830 0.026220 -0.069130 
